<svg width="14" height="18" viewBox="0 0 14 18" fill="none" xmlns="http://www.w3.org/2000/svg">
<path d="M7 4.15625C6.41284 4.15625 5.83886 4.33036 5.35065 4.65657C4.86244 4.98278 4.48193 5.44644 4.25723 5.98891C4.03254 6.53138 3.97374 7.12829 4.08829 7.70417C4.20284 8.28006 4.48559 8.80904 4.90078 9.22422C5.31596 9.63941 5.84494 9.92216 6.42083 10.0367C6.99671 10.1513 7.59362 10.0925 8.13609 9.86777C8.67856 9.64307 9.14221 9.26256 9.46843 8.77435C9.79464 8.28614 9.96875 7.71216 9.96875 7.125C9.96875 6.33764 9.65597 5.58253 9.09922 5.02578C8.54247 4.46903 7.78736 4.15625 7 4.15625ZM7 9.15625C6.59826 9.15625 6.20554 9.03712 5.8715 8.81392C5.53746 8.59073 5.27711 8.27349 5.12337 7.90233C4.96963 7.53116 4.9294 7.12275 5.00778 6.72872C5.08616 6.3347 5.27961 5.97277 5.56369 5.68869C5.84777 5.40461 6.2097 5.21116 6.60372 5.13278C6.99775 5.0544 7.40616 5.09463 7.77733 5.24837C8.14849 5.40211 8.46573 5.66246 8.68892 5.9965C8.91212 6.33054 9.03125 6.72326 9.03125 7.125C9.03125 7.66372 8.81724 8.18038 8.43631 8.56131C8.05538 8.94224 7.53872 9.15625 7 9.15625ZM7 0.40625C5.21871 0.408318 3.51097 1.11685 2.25141 2.37641C0.991848 3.63597 0.283318 5.34371 0.28125 7.125C0.28125 9.53984 1.40156 12.1047 3.52109 14.5422C4.47774 15.6478 5.55442 16.6435 6.73125 17.5109C6.81003 17.5661 6.90385 17.5956 7 17.5956C7.09615 17.5956 7.18997 17.5661 7.26875 17.5109C8.44558 16.6435 9.52226 15.6478 10.4789 14.5422C12.5984 12.1047 13.7188 9.54219 13.7188 7.125C13.7167 5.34371 13.0082 3.63597 11.7486 2.37641C10.489 1.11685 8.78129 0.408318 7 0.40625ZM7 16.5398C5.82812 15.6352 1.21875 11.7828 1.21875 7.125C1.21875 5.59172 1.82784 4.12123 2.91204 3.03704C3.99623 1.95284 5.46672 1.34375 7 1.34375C8.53328 1.34375 10.0038 1.95284 11.088 3.03704C12.1722 4.12123 12.7812 5.59172 12.7812 7.125C12.7813 11.7828 8.17188 15.6352 7 16.5398Z" fill="#0D0D0D"/>
</svg>
